<svg width="95" height="72" viewBox="0 0 95 72" fill="none" xmlns="http://www.w3.org/2000/svg">
<path d="M26.897 5.51555e-07C26.8753 5.51555e-07 26.8626 0.00204028 26.8482 0.00349781C26.717 0.0166156 26.5874 0.134967 26.549 0.285092L25.5648 3.94728C25.4706 4.14317 25.3837 4.35159 25.0609 4.3994L21.7609 5.06899C21.6382 5.09231 21.5209 5.21212 21.4851 5.35904C21.4507 5.50392 21.4943 5.66774 21.5928 5.73566L23.958 6.9868C24.4325 7.28414 24.4036 7.69254 24.2364 8.53849L23.5049 12.1327C23.4717 12.2768 23.5205 12.4324 23.6207 12.5082C23.7319 12.575 23.8739 12.5557 23.9753 12.4467C24.7983 11.6375 25.449 10.9224 26.2989 10.0351C26.726 9.57246 27.1338 9.79429 27.4431 9.97852L29.948 11.6244C30.0563 11.6891 30.1981 11.6719 30.2977 11.5696C30.3965 11.4588 30.4427 11.2938 30.4008 11.16L29.4114 7.77387C29.2803 7.41269 29.3615 7.14043 29.5642 6.82997C30.4323 5.61673 31.3116 5.1063 32.1823 4.25161C32.2837 4.142 32.3282 3.97468 32.2837 3.84C32.2398 3.70562 32.1194 3.617 31.9865 3.64061L28.7094 3.93066C28.3946 3.94698 28.3784 3.65285 28.2776 3.45551L27.128 0.194726C27.0942 0.0854114 27.0012 0.00757969 26.897 5.51555e-07ZM11.7981 5.59924C11.7865 5.59778 11.7628 5.59924 11.7438 5.61323C11.6609 5.63917 11.5864 5.74965 11.5728 5.85576L11.1717 8.48485C11.1197 8.63089 11.0781 8.7851 10.878 8.8708L8.79441 9.87883C8.72279 9.90915 8.64944 10.0199 8.63991 10.1219C8.62778 10.2275 8.66099 10.3254 8.73723 10.3586L10.3247 10.8012C10.6484 10.9239 10.6701 11.2058 10.6086 11.8086L10.368 14.3453C10.3553 14.4485 10.398 14.5458 10.4647 14.5756C10.5398 14.6018 10.6369 14.5729 10.6906 14.4852C11.1651 13.7949 11.5361 13.2093 12.034 12.4651C12.2775 12.0858 12.553 12.1604 12.7629 12.2333L14.4763 12.9291C14.5418 12.9495 14.6443 12.9119 14.6969 12.8225C14.7607 12.7435 14.7763 12.6184 14.7391 12.5327L13.8866 10.4149C13.7835 10.1919 13.8092 9.99747 13.9273 9.75261C14.4012 8.79064 14.9441 8.30295 15.4394 7.58322C15.5043 7.49315 15.5153 7.36926 15.4772 7.28443C15.4394 7.2066 15.368 7.16462 15.284 7.18998L13.1889 7.94236C12.9925 8.01174 12.9613 7.82197 12.8787 7.70361L11.939 5.70185C11.9067 5.63801 11.8552 5.59924 11.7981 5.59924ZM4.09037 12.6776C4.06034 12.6755 4.04128 12.679 4.01702 12.7018L2.73366 13.6206C2.60861 13.7054 2.55923 13.5894 2.49916 13.5229L1.62096 12.4097C1.59555 12.3738 1.5658 12.3537 1.52971 12.3695C1.517 12.3715 1.49823 12.3785 1.48783 12.3858H1.48408C1.43354 12.4263 1.40091 12.5088 1.40206 12.579L1.47137 14.3881C1.44914 14.4945 1.44163 14.6027 1.31976 14.7091L0.0823109 15.7897C0.0326397 15.8334 -0.000570641 15.9092 6.9309e-06 15.9841C0.00491629 16.052 0.04708 16.1048 0.100505 16.1165L1.20482 16.0826C1.43383 16.0952 1.48437 16.2733 1.51989 16.6814L1.6715 18.3963C1.67728 18.4715 1.71684 18.524 1.76651 18.5275C1.81647 18.5336 1.8852 18.4905 1.91206 18.4246C2.13847 17.874 2.30221 17.4099 2.53901 16.8263C2.64846 16.5211 2.83849 16.5211 2.98663 16.5254L4.21166 16.633C4.26133 16.6356 4.31014 16.5922 4.33266 16.5193C4.36501 16.4534 4.36501 16.3619 4.32804 16.3129L3.49692 15.1014C3.40017 14.9778 3.40017 14.8493 3.44176 14.6633C3.63611 13.934 3.93269 13.5002 4.17527 12.9163C4.19722 12.8516 4.19 12.7653 4.16084 12.7193C4.13918 12.6974 4.12098 12.679 4.09037 12.6776Z" fill="#FFCE00"/>
<path d="M17.2331 4.90399e-06C17.0079 0.00904157 17.0232 0.339608 17.0079 0.560569C16.4407 16.0518 16.4716 32.1461 26.7402 48.3797C28.3609 50.9076 28.6052 47.4827 27.8945 44.9303C26.6155 39.0113 24.4245 33.2418 26.9265 27.2514C29.8115 22.4827 34.2634 20.9762 37.4262 17.0583C37.8548 16.5986 38.0451 15.862 37.881 15.309C37.7138 14.7618 35.8477 15.2804 35.3068 15.3787L27.0181 16.9029C24.6899 17.4125 23.0854 15.5699 22.4648 14.0797L18.2335 0.785029C18.0882 0.318621 17.4829 -0.00145262 17.2331 4.90399e-06ZM3.04247 13.6057C2.41783 13.6031 1.76171 13.8133 1.08681 14.3056C-0.137638 15.2405 -0.446927 16.7164 0.781279 18.2357C2.00949 19.751 4.61896 20.1215 5.5064 19.6504C6.91654 18.8992 6.59194 16.6103 6.04007 15.7078C5.26584 14.4368 4.2239 13.6139 3.04247 13.6057Z" transform="translate(10.4253 20.0705)" fill="#FFCE00"/>
<path d="M21.6633 3.55842e-08C21.6108 3.55842e-08 21.523 0.084827 21.4028 0.285383C20.8992 1.09927 20.3265 2.71771 20.1972 3.19461C18.9681 6.84018 18.7238 7.05443 16.5241 14.1246C15.6748 16.4709 14.3634 19.6355 11.9763 20.0049L2.48101 21.7224C0.102571 22.2789 -0.930416 23.3954 1.0316 24.6456C3.12183 25.9571 6.17112 26.5492 9.29232 28.6325C11.2581 29.7709 11.0042 32.5422 10.2101 36.1216L7.17494 49.892C7.02073 50.5121 7.21652 51.1645 7.64075 51.4396C8.07306 51.7154 8.69713 51.5915 9.13666 51.1508C12.7953 44.6887 15.6199 37.5902 22.394 41.7185C25.7768 44.2989 25.7883 43.0443 24.9012 41.2145C18.8012 27.4175 20.0776 16.1235 21.7092 0.355054C21.7456 0.144004 21.7347 0.00174907 21.6633 3.55842e-08ZM33.079 8.291C32.541 8.29479 31.9681 8.47115 31.3665 8.84894C29.7508 9.8488 28.4995 12.5718 29.1914 13.5518C30.3408 15.1854 32.1177 14.7787 33.1631 14.1613C35.3916 12.8405 36.431 11.5547 35.2117 9.53893C34.7055 8.75449 33.9601 8.28925 33.079 8.291Z" transform="translate(4.59717 20.414)" fill="#001689"/>
<path d="M29.9133 -7.11683e-07C28.7654 -7.11683e-07 27.4866 1.0331 26.0863 3.09666C24.7495 5.05879 23.6576 7.36488 22.8239 10.0292C21.9601 12.8557 21.6479 15.2912 21.9104 17.3344C22.49 22.1224 24.1976 24.5159 27.0124 24.5159C28.3914 24.5159 29.8526 24.1885 31.3858 23.5286C32.6432 23.0146 33.7631 22.3564 34.7487 21.5711C35.6425 20.8683 36.0884 20.3684 36.0537 20.0836C35.3555 17.0469 34.6583 15.0857 33.971 14.1718C33.3368 13.3098 32.2819 12.8714 30.8299 12.8714C30.8542 12.8714 30.7629 12.8682 30.5509 12.8496H29.9205C27.465 12.8496 26.3217 13.5189 26.4816 14.8589C26.5486 15.3539 26.9818 15.762 27.7852 16.0961C28.848 16.5289 29.4065 16.7581 29.4374 16.7904C29.4801 16.8242 29.5061 16.9338 29.5431 17.1198C29.5722 17.2638 29.5884 17.4402 29.6023 17.6457C29.6283 17.9139 29.6329 18.0526 29.6329 18.0713C29.7068 18.6546 29.4801 19.1461 28.951 19.5577C28.521 19.8699 28.115 20.0308 27.7327 20.0308C26.9232 20.0308 26.149 19.7568 25.4232 19.2222C24.4466 18.5205 23.8857 17.4833 23.7263 16.0963C23.5481 14.7371 24.2158 12.4345 25.7337 9.19409C27.2186 6.01376 28.3348 4.35363 29.0822 4.18223C29.5841 4.06388 29.9918 4.40902 30.2968 5.23573C30.3583 5.37915 30.5616 6.15747 30.9209 7.58235C31.1522 8.47523 31.3965 8.91657 31.67 8.91657C32.2071 8.91657 32.6929 8.22862 33.1052 6.86933C33.4997 5.59137 33.647 4.49735 33.5358 3.58319C33.4047 2.49558 32.9016 1.60386 32.0561 0.899002C31.3358 0.297335 30.615 -7.11683e-07 29.9133 -7.11683e-07ZM17.6976 0.24807C17.4132 0.24807 17.1605 0.430844 16.9329 0.778318C16.7094 3.28089 16.399 5.95691 15.9912 8.81804C15.5924 11.6786 15.3544 13.5247 15.2819 14.3596C15.1341 16.0736 15.1508 17.6967 15.3365 19.2685C15.5551 20.9872 16.0201 21.8632 16.7735 21.8632C16.9581 21.8632 17.179 21.709 17.4048 21.398C17.3407 18.1264 17.367 15.8116 17.4955 14.4517C17.7828 12.2129 18.0716 9.97853 18.3691 7.73831C18.6697 5.09523 18.6697 2.73491 18.3691 0.689411C18.1221 0.393825 17.9059 0.24807 17.6976 0.24807ZM42.5572 1.16253C40.8259 1.16253 39.8094 1.40301 39.5137 1.88516C39.2405 2.29327 38.8893 4.44808 38.4576 8.3289C37.9996 12.4283 37.8639 15.2382 38.051 16.7764C38.1948 17.9632 38.5159 18.7986 39.0138 19.2988C39.4452 19.7253 40.0748 19.9314 40.8921 19.9314C42.0963 19.9314 43.5226 19.3749 45.1681 18.2468C46.8994 17.0621 47.9116 15.857 48.218 14.6342C47.8492 13.9686 47.5102 13.5238 47.1882 13.3346C47.0054 13.2131 46.7261 13.1472 46.3498 13.1472C46.2153 13.1472 45.4699 13.5428 44.1172 14.3132C42.7544 15.093 42.0247 15.4734 41.891 15.4734C41.2949 15.4734 40.8779 15.3967 40.6636 15.2425C40.7234 13.316 41.037 12.0252 41.6198 11.3885C42.07 10.8851 42.9999 10.528 44.4242 10.2899C46.6308 9.91323 48.3202 9.53631 49.4976 9.14424C49.5403 8.99061 49.5646 8.82183 49.5403 8.66704C49.4976 8.29217 49.2856 7.98317 48.9171 7.74822C48.5414 7.51268 48.1542 7.3952 47.7539 7.3952C47.2572 7.3952 46.2378 7.49052 44.6936 7.65697C43.2321 7.82984 42.1737 7.90884 41.5372 7.89018L41.4283 6.9113C41.2709 5.68756 41.463 4.86377 41.9819 4.41835C42.3311 4.11198 42.9586 3.9432 43.855 3.9432H44.3147C44.5189 3.95398 44.6882 3.97701 44.7803 3.97701C45.2299 3.97701 45.5817 3.95106 45.8502 3.88926L45.9767 2.82585C45.4017 2.00177 44.8389 1.48668 44.2862 1.29778C44.0375 1.20887 43.4663 1.16253 42.5572 1.16253ZM8.62196 1.86797C7.07176 1.86738 5.30237 2.1723 3.52893 2.84422C3.25574 2.9445 2.34202 3.32112 2.00096 3.67122C1.85455 3.86653 1.04479 5.15032 0.899531 5.85168C0.729725 6.66003 0.576671 7.73364 0.286152 9.87941C-0.286511 14.0835 0.142912 16.2756 0.349394 17.8436C0.49321 19.0735 0.846974 19.9329 1.41328 20.4453C1.89065 20.8797 2.60886 21.0974 3.53788 21.0974C4.90615 21.0974 6.53433 20.5132 8.42645 19.3632C10.4032 18.143 11.5679 16.9006 11.9199 15.6544C11.5182 14.9601 11.1356 14.5059 10.7728 14.3138C10.5687 14.1832 10.2455 14.1264 9.8106 14.1264C9.66217 14.1264 8.82642 14.5295 7.27882 15.3247C5.71851 16.1176 4.87727 16.512 4.74039 16.512C4.04586 16.512 3.5812 16.4252 3.34497 16.2675C3.42987 14.2893 3.79981 12.9839 4.46373 12.3263C4.97575 11.8103 6.05927 11.4346 7.68947 11.1959C10.1938 10.8035 12.1102 10.4193 13.4571 10.0208C13.5042 9.85697 13.5229 9.68002 13.5059 9.52028C13.4643 9.13724 13.233 8.83203 12.8082 8.593C12.3926 8.35134 11.9606 8.219 11.5104 8.219C10.9476 8.219 9.78894 8.30762 8.02908 8.4866C6.35181 8.66792 5.14642 8.74109 4.4155 8.72797L4.32222 7.72664C4.1657 6.47055 4.39298 5.61994 4.97632 5.16752C5.38756 4.84628 6.09075 4.67954 7.11998 4.67954H7.64355C7.88325 4.69353 8.45129 4.53349 8.56795 4.53349C9.67343 4.52038 10.385 4.51484 11.4053 4.06679C11.6585 3.73477 11.5618 3.50302 11.5381 3.28439C11.5176 3.05585 11.7345 2.66203 11.7045 2.43873C10.8771 2.0691 9.81118 1.87205 8.62196 1.86797Z" transform="translate(45.45 44.7442)" fill="#001689"/>
<path d="M5.56101 1.95875C5.57805 2.69684 4.58492 3.84887 3.04829 4.07128C2.09616 4.20946 0.0778331 3.51043 0.00101602 2.78371C-0.0521206 2.18029 1.99104 0.35488 3.19585 0.0837802C4.57769 -0.223467 5.29215 0.295124 5.56101 1.95875Z" transform="translate(62.6387 40.2229)" fill="#FFCE00"/>
</svg>
